<svg xmlns="http://www.w3.org/2000/svg"
shape-rendering="geometricPrecision"
width="4000" height="4000" viewBox="0 0 624 624"><rect width="100%" height="100%" fill="#FFFFFF" />
  <metadata>null</metadata>

<path d="
M 28.656 493.15
C 35.072 492.719 41.535 493.26 47.957 492.954
C 50.319 496.218 51.465 501.119 53.019 504.843
C 56.346 512.818 59.886 520.716 63.08 528.746
C 64.38 532.015 65.844 535.215 67.17 538.472
C 67.551 539.408 68.114 541.66 68.87 542.234
C 71.28 533.465 75.778 525.007 79.278 516.629
C 81.5 511.313 83.706 505.993 85.967 500.694
C 87.024 498.216 87.848 495.509 89.189 493.171
C 91.847 492.858 94.671 493.112 97.352 493.092
C 101.122 493.063 104.933 492.83 108.696 493.087
C 108.406 498.859 108.676 504.716 108.692 510.501
C 108.72 521.168 108.707 531.835 108.731 542.502
C 108.743 548.001 108.722 553.499 108.671 558.997
C 108.649 561.351 108.156 564.386 108.686 566.667
C 105.02 567.021 101.178 566.675 97.495 566.676
C 96.739 566.676 94.428 567.09 93.929 566.575
C 93.555 555.408 93.794 544.176 93.798 533.003
C 93.8 528.665 93.853 524.322 93.792 519.986
C 93.785 519.502 94.121 516.078 93.672 516.095
C 91.176 520.272 89.591 525.215 87.613 529.673
C 84.687 536.267 81.542 542.79 78.78 549.454
C 77.227 553.2 76.046 557.83 73.857 561.232
C 70.397 561.624 66.693 561.191 63.21 561.2
C 61.364 558.075 60.148 554.517 58.681 551.206
C 55.003 542.903 51.562 534.507 47.799 526.24
C 46.844 524.143 45.985 522.012 45.13 519.873
C 44.614 518.583 44.42 516.944 43.573 515.833
C 42.879 520.731 43.322 526.058 43.341 531.005
C 43.373 539.004 43.277 547.004 43.256 555.004
C 43.25 557.67 43.24 560.337 43.251 563.003
C 43.256 564.144 43.566 565.539 43.374 566.648
C 38.715 566.876 33.596 566.957 28.958 566.57
C 27.932 542.135 29.57 517.59 28.656 493.15 Z"
opacity="1" fill="rgb(19,29,76)" fill-rule="evenodd" />
<path d="
M 120.909 549.096
C 123.694 533.464 143.414 534.007 155.825 533.311
C 155.486 530.471 156.195 527.287 153.924 525.042
C 150.842 521.994 143.591 521.524 140.015 523.954
C 138.153 525.219 137.21 527.174 136.77 529.315
C 136.071 529.755 134.529 529.458 133.698 529.47
C 131.18 529.507 128.648 529.481 126.131 529.41
C 125.24 529.385 124.004 529.641 123.185 529.272
C 123.723 524.259 125.349 519.49 129.334 516.133
C 131.654 514.179 134.385 512.959 137.287 512.141
C 146.828 509.452 160.809 510.529 167.163 519.133
C 170.979 524.301 170.55 530.932 170.496 537.012
C 170.446 542.675 170.588 548.345 170.579 553.998
C 170.572 558.105 170.002 562.504 170.514 566.589
C 169.472 567.007 167.64 566.619 166.504 566.606
C 163.401 566.569 160.296 566.63 157.193 566.642
C 156.718 566.148 156.829 565.042 156.796 564.378
C 156.712 562.726 156.71 561.06 156.587 559.414
C 155.396 560.467 154.475 561.832 153.251 562.909
C 150.818 565.049 147.864 566.538 144.726 567.313
C 135.021 569.709 122.916 565.508 121.049 554.65
C 120.734 552.819 120.666 550.94 120.909 549.096 Z
M 135.871 548.547
C 135.682 549.367 135.573 550.178 135.637 551.021
C 136.145 557.675 144.583 557.988 149.381 556.023
C 155.104 553.679 156.015 548.128 155.775 542.548
C 153.057 542.678 150.344 542.931 147.634 543.181
C 143.118 543.598 137.878 543.756 135.871 548.547 Z"
opacity="1" fill="rgb(17,27,76)" fill-rule="evenodd" />
<path d="
M 123.783 212
C 127.593 208.627 131.021 204.693 134.618 201.084
C 136.344 199.353 138.86 197.51 140.155 195.456
C 139.301 194.335 137.628 193.254 136.576 192.225
C 133.747 189.456 130.97 186.634 128.15 183.856
C 127.131 182.853 124.165 180.741 124.054 179.387
C 125.992 177.48 127.845 175.462 129.705 173.476
C 130.645 172.472 131.62 171.057 132.933 170.565
C 138.942 175.105 143.174 181.887 149.122 186.472
C 152.815 182.986 156.358 179.322 159.947 175.725
C 161.625 174.043 163.349 171.671 165.468 170.57
C 167.411 172.443 169.194 174.49 171.097 176.408
C 171.997 177.314 173.388 178.291 174.03 179.375
C 172.869 181.283 170.603 182.803 169.048 184.42
C 165.499 188.109 162.097 192.227 158.135 195.475
C 162.214 199.406 165.99 203.687 170 207.696
C 171.001 208.696 171.974 209.723 172.983 210.713
C 173.363 211.087 174.003 211.495 174.001 212.048
C 172.62 214.503 169.619 216.509 167.651 218.517
C 166.95 219.232 166.169 220.558 165.232 220.93
C 160.801 217.627 156.992 212.69 153.09 208.761
C 151.804 207.466 150.493 205.706 148.964 204.721
C 145.187 208.983 140.951 212.899 136.911 216.91
C 136.024 217.79 133.858 220.89 132.64 220.965
C 129.914 217.946 126.033 215.375 123.783 212 Z"
opacity="1" fill="rgb(19,30,78)" fill-rule="evenodd" />
<path d="
M 129.339 238.46
C 130.373 237.076 131.958 237.304 133.511 237.319
C 136.343 237.347 139.176 237.337 142.009 237.341
C 152.508 237.355 163.008 237.412 173.507 237.361
C 176.342 237.347 179.176 237.33 182.011 237.329
C 183.17 237.328 184.607 237.07 185.602 237.764
C 186.539 239.055 186.404 240.48 186.402 242.005
C 186.398 244.671 186.408 247.337 186.41 250.003
C 186.416 260.836 186.45 271.67 186.408 282.503
C 186.397 285.424 186.367 288.345 186.373 291.266
C 186.377 292.666 186.6 294.49 185.67 295.662
C 184.546 296.228 182.739 295.975 181.507 295.971
C 178.59 295.963 175.674 295.913 172.757 295.882
C 162.766 295.777 152.746 296.064 142.741 296.107
C 139.733 296.12 136.728 295.967 133.727 295.966
C 132.526 295.966 130.74 296.236 129.812 295.277
C 128.922 294.356 129.228 292.673 129.229 291.508
C 129.231 288.174 129.248 284.84 129.24 281.507
C 129.216 271.839 129.215 262.171 129.199 252.503
C 129.194 249.503 129.186 246.502 129.188 243.502
C 129.189 241.87 128.942 240.049 129.339 238.46 Z
M 132.698 292.259
C 139.635 293.078 147.025 292.431 154.009 292.393
C 163.607 292.341 173.296 292.74 182.881 292.282
C 182.813 275.691 182.736 259.087 182.801 242.498
C 182.787 242.248 182.936 241.16 182.844 240.993
C 182.784 240.885 180.506 241.067 180.278 241.078
C 177.352 241.218 174.429 241.188 171.5 241.19
C 162.167 241.197 152.834 241.192 143.5 241.194
C 140.999 241.195 138.498 241.21 135.997 241.196
C 135.08 241.19 133.742 240.923 132.963 241.407
C 132.096 253.671 132.991 266.207 132.935 278.502
C 132.915 283.007 133.36 287.8 132.698 292.259 Z"
opacity="1" fill="rgb(13,23,65)" fill-rule="evenodd" />
<path d="
M 130 318.617
C 130.029 317.271 130.257 315.87 130.848 314.655
C 135.277 305.544 148.582 309.538 148.485 319.22
C 148.473 320.475 148.191 321.722 147.704 322.877
C 143.844 332.042 129.79 328.141 130 318.617 Z
M 133.867 317.058
C 131.879 323.817 142.438 327.624 144.645 320.766
C 146.807 314.046 136.006 309.782 133.867 317.058 Z"
opacity="1" fill="rgb(10,20,68)" fill-rule="evenodd" />
<path d="
M 132.698 292.259
C 133.919 292.004 134.911 289.359 135.855 288.361
C 139.316 284.705 142.973 281.239 146.477 277.626
C 147.127 275.989 146.531 273.267 146.531 271.497
C 146.534 266.195 145.987 260.492 146.667 255.238
C 151.777 255.192 156.893 255.107 162.005 255.091
C 163.957 255.085 166.84 255.646 168.655 254.951
C 171.84 251.258 175.118 247.642 178.775 244.409
C 179.489 243.778 181.834 240.825 182.801 242.498
C 182.736 259.087 182.813 275.691 182.881 292.282
C 173.296 292.74 163.607 292.341 154.009 292.393
C 147.025 292.431 139.635 293.078 132.698 292.259 Z"
opacity="1" fill="rgb(45,177,242)" fill-rule="evenodd" />
<path d="
M 133.867 317.058
C 136.006 309.782 146.807 314.046 144.645 320.766
C 142.438 327.624 131.879 323.817 133.867 317.058 Z"
opacity="1" fill="rgb(48,181,235)" fill-rule="evenodd" />
<path d="
M 145.786 121.199
C 151.526 121.334 157.524 121.738 163.247 121.202
C 162.685 115.611 163.635 109.849 163.278 104.232
C 163.657 103.693 165.087 103.947 165.737 103.976
C 167.661 104.064 169.573 104.066 171.499 104.068
C 172.306 104.069 173.272 103.894 173.958 104.341
C 173.696 109.879 173.765 115.797 174.076 121.333
C 179.791 121.138 185.549 121.321 191.27 121.255
C 191.401 124.657 190.424 128.958 191.287 132.241
C 187.027 132.211 182.765 132.24 178.505 132.256
C 177.269 132.26 174.783 131.802 174.037 132.828
C 174.019 136.713 173.91 140.612 173.867 144.502
C 173.851 145.959 173.472 147.954 173.868 149.334
C 170.3 149.28 166.718 149.361 163.152 149.264
C 163.014 143.793 162.529 137.734 163.184 132.306
C 157.52 131.568 151.544 132.823 145.916 132.039
C 145.942 128.462 146.387 124.745 145.786 121.199 Z"
opacity="1" fill="rgb(53,179,244)" fill-rule="evenodd" />
<path d="
M 156.166 337.667
C 160.524 337.176 165.116 337.535 169.505 337.531
C 177.671 337.523 185.837 337.532 194.003 337.526
C 198.504 337.522 203.005 337.514 207.506 337.542
C 209.442 337.554 211.716 337.209 213.59 337.702
C 213.615 341.943 213.939 346.621 213.377 350.822
C 204.118 350.417 194.772 350.826 185.503 350.81
C 175.862 350.793 166.133 350.369 156.503 350.837
C 155.974 350.016 156.325 348.098 156.307 347.098
C 156.252 343.954 156.273 340.81 156.166 337.667 Z"
opacity="1" fill="rgb(18,30,79)" fill-rule="evenodd" />
<path d="
M 174.954 318.097
C 175.141 316.519 175.692 315.006 176.53 313.664
C 182.349 304.356 196.841 309.665 195.64 320.472
C 194.417 331.481 178.67 333.206 175.336 322.557
C 174.894 321.146 174.78 319.561 174.954 318.097 Z"
opacity="1" fill="rgb(19,31,80)" fill-rule="evenodd" />
<path d="
M 174.953 368.596
C 175.167 367.15 175.634 365.745 176.406 364.5
C 182.295 355.003 197.261 361.04 195.522 371.879
C 195.27 373.447 194.666 374.953 193.837 376.302
C 190.289 382.08 181.828 382.097 177.417 377.37
C 175.279 375.078 174.502 371.647 174.953 368.596 Z"
opacity="1" fill="rgb(20,31,81)" fill-rule="evenodd" />
<path d="
M 178.882 512.276
C 181.872 512.113 184.88 512.35 187.873 512.291
C 187.82 507.617 188.085 502.854 187.776 498.189
C 192.774 498.255 197.77 498.215 202.768 498.116
C 202.524 501.528 202.762 505.071 202.791 508.496
C 202.798 509.337 202.437 511.303 202.905 511.918
C 206.672 511.721 210.458 512.152 214.216 511.962
C 214.632 514.249 214.278 516.687 214.285 519.002
C 214.289 520.351 214.617 521.924 214.347 523.245
C 210.494 523.226 206.636 523.268 202.786 523.332
C 202.425 525.819 202.718 528.488 202.731 531
C 202.757 536.001 202.762 541.002 202.767 546.003
C 202.77 548.827 202.447 552.173 204.92 554.128
C 207.772 556.383 210.903 554.411 214.009 554.707
C 214.489 558.11 215.137 562.083 215.158 565.506
C 212.523 567.024 209.104 567.235 206.143 567.482
C 199.1 568.071 191.248 565.014 188.834 557.887
C 187.498 553.939 187.822 549.436 187.803 545.328
C 187.77 538.022 187.914 530.706 187.849 523.408
C 185.606 523.099 183.273 523.288 181.011 523.227
C 180.492 523.213 179.287 523.484 178.929 523.104
C 178.898 519.517 179.134 515.849 178.882 512.276 Z"
opacity="1" fill="rgb(17,29,78)" fill-rule="evenodd" />
<path d="
M 188.477 158.12
C 188.673 156.165 188.48 154.234 189.383 152.421
C 192.073 147.014 196.957 147.335 202.169 147.326
C 206.542 147.318 210.917 147.296 215.289 147.295
C 214.433 142.565 215.187 137.054 215.178 132.243
C 215.175 130.189 214.736 127.486 215.71 125.608
C 216.665 123.767 218.129 121.928 220.064 121.067
C 221.68 120.347 223.951 120.463 225.691 120.429
C 230.183 120.342 235.087 119.75 238.306 123.55
C 240.553 126.203 240.392 129.228 240.403 132.506
C 240.416 136.005 240.418 139.505 240.43 143.004
C 240.434 144.292 240.13 146.09 240.495 147.311
C 245.268 147.133 250.073 147.3 254.85 147.318
C 257.61 147.329 260.503 147.004 262.979 148.459
C 267.315 151.008 267.311 155.726 267.3 160.131
C 267.29 164.353 267.189 168.878 263.222 171.44
C 260.569 173.152 257.521 172.787 254.506 172.781
C 249.858 172.772 245.131 173.037 240.493 172.792
C 240.485 177.528 240.358 182.267 240.35 187.005
C 240.345 189.869 240.687 192.628 239.23 195.212
C 236.493 200.068 231.404 200.397 226.37 199.997
C 221.977 199.648 218.112 199.134 215.863 194.753
C 214.797 192.676 215.154 189.999 215.152 187.742
C 215.147 182.822 215.398 177.8 215.107 172.894
C 210.205 172.56 205.193 172.835 200.277 172.825
C 195.681 172.815 191.211 172.184 189.108 167.424
C 187.974 164.855 188.423 160.882 188.477 158.12 Z"
opacity="1" fill="rgb(49,178,243)" fill-rule="evenodd" />
<path d="
M 189.362 215.911
C 193.552 216.03 197.885 216.359 202.068 215.99
C 202.517 215.278 202.16 213.363 202.179 212.498
C 202.249 209.219 202.326 205.919 202.186 202.641
C 204.542 202.702 206.942 202.719 209.298 202.631
C 209.679 207.022 209.46 211.703 209.363 216.114
C 213.538 216.35 218.08 216.514 222.242 216.09
C 222.077 218.382 222.062 220.852 222.203 223.146
C 219.376 223.589 216.317 223.212 213.461 223.266
C 212.212 223.29 210.73 223.113 209.585 223.645
C 209.104 228.036 209.519 232.488 209.312 236.892
C 207.064 236.796 204.636 236.806 202.393 236.998
C 202.01 235.463 202.273 233.591 202.269 232.008
C 202.262 229.211 202.081 226.343 202.268 223.557
C 201.735 223.074 199.758 223.376 199.009 223.359
C 195.948 223.285 192.249 223.859 189.272 223.269
C 189.297 221.301 188.542 217.651 189.362 215.911 Z"
opacity="1" fill="rgb(20,30,75)" fill-rule="evenodd" />
<path d="
M 206.424 258.029
C 210.098 261.877 215.059 264.803 219.304 267.981
C 221.705 269.778 223.909 271.982 226.458 273.56
C 226.759 272.393 226.344 270.65 226.352 269.415
C 226.383 264.81 225.693 259.474 226.431 254.96
C 225.157 243.176 226.547 230.086 234.228 220.645
C 238.607 215.263 245.253 212.117 251.177 208.805
C 260.059 203.839 268.936 198.761 277.668 193.535
C 290.03 186.138 302.681 176.178 317.944 179.043
C 325.655 180.49 331.947 185.182 338.639 188.943
C 349.773 195.2 360.558 202.051 371.645 208.392
C 379.477 212.873 387.764 217.108 392.442 225.189
C 395.574 230.6 397.058 236.639 397.182 242.872
C 397.232 245.377 397.254 247.887 397.222 250.392
C 397.206 251.586 396.869 253.211 397.319 254.334
C 396.58 260.343 397.256 266.776 397.195 272.83
C 397.583 273.092 398.066 272.59 398.421 272.352
C 399.694 271.498 400.907 270.51 402.095 269.544
C 407.085 265.485 412.33 261.688 417.47 257.823
C 419.484 257.258 420.582 259.041 420.382 260.88
C 417.254 262.5 414.555 264.839 411.725 266.917
C 406.86 270.492 402.007 274.136 397.257 277.857
C 396.26 281.451 397.06 286.291 397.07 290.024
C 397.103 302.424 397.83 315.027 389.396 325.171
C 385.674 329.647 380.458 332.501 375.499 335.391
C 369.64 338.807 363.964 342.521 358.134 345.987
C 355.107 347.787 352.108 349.625 349.116 351.484
C 348.009 352.172 345.928 353.062 345.404 354.312
C 342.864 354.475 339.819 357.246 337.679 358.537
C 332.049 361.931 326.254 366.066 319.804 367.676
C 312.633 369.467 304.776 368.78 298.111 365.482
C 293.698 363.298 289.44 360.563 285.268 357.952
C 283.276 356.705 281.294 355.197 279.132 354.278
C 276.64 352.929 274.325 351.179 271.916 349.677
C 265.434 345.636 258.896 341.655 252.386 337.657
C 243.622 332.274 234.724 328.113 229.967 318.414
C 226.195 310.725 226.411 302.78 226.396 294.436
C 226.387 289.1 226.122 283.685 226.512 278.361
C 225.064 276.465 222.265 275.033 220.407 273.508
C 215.009 269.081 209.341 264.515 203.297 261.012
C 203.557 260.956 203.011 260.37 202.939 260.218
C 202.686 259.686 202.735 259.167 202.899 258.622
C 203.359 257.968 203.863 257.754 204.597 257.471
C 205.36 257.473 205.778 257.631 206.424 258.029 Z
M 233.634 291.007
C 233.542 298.077 232.783 306.291 235.44 312.998
C 238.933 321.817 246.148 325.696 253.809 330.385
C 261.028 334.804 268.281 339.23 275.391 343.822
C 281.431 347.723 287.694 351.254 293.887 354.904
C 297.953 357.3 302.254 360.109 307.01 360.829
C 321.393 363.688 333.141 352.47 344.784 345.743
C 352.599 341.227 360.1 336.185 367.903 331.679
C 374.548 327.841 382.278 324.109 386.217 317.221
C 390.269 310.137 389.914 302.293 389.858 294.406
C 389.795 285.604 389.989 276.795 389.865 267.997
C 389.768 261.161 390.13 254.339 390.059 247.5
C 390.04 245.696 389.979 243.872 390.063 242.069
C 390.094 241.404 390.242 240.572 389.904 239.967
C 389.158 233.115 386.108 226.821 380.719 222.427
C 377.682 219.951 374.021 218.097 370.651 216.118
C 365.797 213.266 360.953 210.388 356.112 207.513
C 348.314 202.882 340.429 198.397 332.674 193.696
C 327.193 190.373 321.712 186.527 315.196 185.755
C 306.01 184.665 299.272 189.126 291.685 193.507
C 281.361 199.47 271.291 205.861 260.844 211.605
C 254.145 215.288 246.19 218.882 240.77 224.378
C 233.349 231.904 233.479 242.171 233.585 251.998
C 233.727 264.995 233.792 278.011 233.634 291.007 Z"
opacity="1" fill="rgb(17,30,79)" fill-rule="evenodd" />
<path d="
M 203.297 261.012
C 209.341 264.515 215.009 269.081 220.407 273.508
C 222.265 275.033 225.064 276.465 226.512 278.361
C 226.122 283.685 226.387 289.1 226.396 294.436
C 226.411 302.78 226.195 310.725 229.967 318.414
C 234.724 328.113 243.622 332.274 252.386 337.657
C 258.896 341.655 265.434 345.636 271.916 349.677
C 274.325 351.179 276.64 352.929 279.132 354.278
C 273.151 356.357 265.614 355.695 259.431 354.878
C 254.146 354.179 249.154 352.88 244.196 350.93
C 219.589 341.247 210.16 315.661 205.386 291.745
C 203.957 284.588 203.392 277.257 203.083 269.976
C 202.968 267.28 202.201 263.523 203.297 261.012 Z"
opacity="1" fill="rgb(51,180,245)" fill-rule="evenodd" />
<path d="
M 206.424 258.029
C 207.473 257.009 209.786 256.985 211.177 256.684
C 214.184 256.034 217.239 255.695 220.285 255.286
C 222.216 255.027 224.503 254.571 226.431 254.96
C 225.693 259.474 226.383 264.81 226.352 269.415
C 226.344 270.65 226.759 272.393 226.458 273.56
C 223.909 271.982 221.705 269.778 219.304 267.981
C 215.059 264.803 210.098 261.877 206.424 258.029 Z"
opacity="1" fill="rgb(48,179,244)" fill-rule="evenodd" />
<path d="
M 207.881 78.306
C 218.247 78.112 228.634 78.361 239.003 78.339
C 245.076 78.325 251.474 77.732 257.512 78.358
C 257.243 82.457 256.986 87.215 257.582 91.284
C 256.291 91.684 254.367 91.289 253.003 91.28
C 249.836 91.26 246.669 91.27 243.501 91.267
C 236.001 91.26 228.501 91.263 221.001 91.265
C 216.679 91.266 212.268 91.008 207.961 91.396
C 207.551 90.333 207.879 88.745 207.87 87.596
C 207.845 84.51 208.033 81.385 207.881 78.306 Z"
opacity="1" fill="rgb(20,31,78)" fill-rule="evenodd" />
<path d="
M 268.442 369.317
C 251.232 377.693 243.89 398.944 251.939 416.122
C 253.666 419.807 256.214 424.056 259.599 426.385
C 258.521 425.949 257.25 426.543 256.165 426.802
C 253.967 427.328 251.773 427.693 249.508 427.757
C 243.157 427.934 236.956 425.743 231.729 422.221
C 228.62 420.127 225.762 417.565 223.6 414.487
C 211.518 397.289 218.974 371.894 239.089 364.875
C 246.181 362.4 253.42 362.74 260.514 364.976
C 262.532 365.613 264.572 366.662 266.239 367.968
C 266.86 368.455 267.603 369.483 268.442 369.317 Z"
opacity="1" fill="rgb(51,179,244)" fill-rule="evenodd" />
<path d="
M 226.394 490.975
C 231.189 491.102 236.062 491.242 240.856 490.968
C 241.367 493.539 241.095 496.384 241.111 498.998
C 241.153 505.981 240.483 513.361 241.183 520.288
C 241.65 520.323 242.099 519.068 242.302 518.741
C 243.193 517.311 244.131 516.102 245.454 515.037
C 248.917 512.252 253.135 511.204 257.494 510.949
C 259.628 510.825 261.861 511.087 263.936 511.599
C 265.567 512.003 267.163 512.611 268.624 513.445
C 279.68 519.757 277.751 534.771 277.756 545.502
C 277.758 548.668 277.764 551.835 277.749 555.001
C 277.736 557.668 277.732 560.336 277.731 563.003
C 277.731 564.054 277.454 565.686 277.784 566.651
C 274.357 566.652 270.93 566.602 267.502 566.597
C 266.088 566.595 264.256 566.922 262.901 566.567
C 263.11 558.563 262.836 550.514 262.819 542.506
C 262.81 538.302 263.431 533.452 261.955 529.437
C 259.444 522.605 248.731 521.297 244.088 526.644
C 240.671 530.579 241.081 535.637 241.083 540.495
C 241.088 549.127 241.064 557.775 241.074 566.398
C 239.847 566.929 237.831 566.595 236.502 566.586
C 233.121 566.566 229.615 566.367 226.248 566.665
C 225.585 564.946 226.183 561.878 226.187 560.001
C 226.197 554.835 226.212 549.669 226.209 544.502
C 226.201 526.739 225.924 508.959 226.136 491.199
C 226.222 491.124 226.308 491.049 226.394 490.975 Z"
opacity="1" fill="rgb(19,30,80)" fill-rule="evenodd" />
<path d="
M 248.5 306.291
C 240.562 306.209 234.915 299.114 235.245 291.474
C 235.395 289.496 236.119 287.62 237.243 285.991
C 238.289 284.477 239.797 283.291 241.522 282.639
C 250.07 279.409 257.335 288.06 257.306 295.994
C 257.288 300.836 253.712 306.11 248.5 306.291 Z
M 238.928 290.581
C 237.92 294.707 239.926 299.34 243.488 301.59
C 247.307 304.003 252.342 302.891 253.584 298.268
C 254.741 293.964 252.54 288.868 248.829 286.514
C 244.829 283.975 240.032 286.068 238.928 290.581 Z"
opacity="1" fill="rgb(8,21,64)" fill-rule="evenodd" />
<path d="
M 238.928 290.581
C 240.032 286.068 244.829 283.975 248.829 286.514
C 252.54 288.868 254.741 293.964 253.584 298.268
C 252.342 302.891 247.307 304.003 243.488 301.59
C 239.926 299.34 237.92 294.707 238.928 290.581 Z"
opacity="1" fill="rgb(42,179,241)" fill-rule="evenodd" />
<path d="
M 240.431 251.104
C 241.675 241.144 252.616 235.522 261.015 241.402
C 265.912 244.829 267.938 251.515 267.183 257.229
C 266.066 265.677 257.064 272.147 248.919 268.02
C 242.778 264.908 239.593 257.819 240.431 251.104 Z
M 243.969 251.106
C 243.621 252.953 243.828 254.741 243.933 256.594
C 244.075 256.91 245.419 256.209 245.758 256.062
C 247.543 255.289 249.475 253.67 251.324 253.255
C 251.436 252.612 250.716 251.386 250.446 250.783
C 249.499 248.664 248.287 246.662 247.513 244.472
C 245.374 245.851 244.559 248.78 243.969 251.106 Z
M 246.401 260.07
C 246.313 260.247 246.226 260.425 246.138 260.602
C 247.761 262.792 249.559 265.401 252.477 265.853
C 253.931 266.079 255.563 265.752 256.99 265.494
C 254.895 263.281 253.272 259.41 252.635 256.436
C 250.608 257.715 248.36 258.682 246.401 260.07 Z
M 251.364 242.381
C 251.444 244.856 252.519 247.497 253.498 249.748
C 253.796 250.43 253.978 251.403 254.453 251.954
C 256.4 250.96 258.417 250.11 260.361 249.106
C 260.889 248.833 261.801 248.673 262.087 248.106
C 259.771 243.936 256.116 241.762 251.364 242.381 Z
M 256.418 254.983
C 256.296 255.104 256.174 255.225 256.052 255.346
C 256.656 258.484 258.469 260.978 259.591 263.894
C 260.356 263.603 261.012 262.445 261.499 261.818
C 263.664 259.031 264.462 254.929 263.703 251.501
C 261.213 252.357 258.591 253.472 256.418 254.983 Z"
opacity="1" fill="rgb(9,24,71)" fill-rule="evenodd" />
<path d="
M 243.969 251.106
C 244.559 248.78 245.374 245.851 247.513 244.472
C 248.287 246.662 249.499 248.664 250.446 250.783
C 250.716 251.386 251.436 252.612 251.324 253.255
C 249.475 253.67 247.543 255.289 245.758 256.062
C 245.419 256.209 244.075 256.91 243.933 256.594
C 243.828 254.741 243.621 252.953 243.969 251.106 Z"
opacity="1" fill="rgb(54,170,231)" fill-rule="evenodd" />
<path d="
M 246.401 260.07
C 248.36 258.682 250.608 257.715 252.635 256.436
C 253.272 259.41 254.895 263.281 256.99 265.494
C 255.563 265.752 253.931 266.079 252.477 265.853
C 249.559 265.401 247.761 262.792 246.138 260.602
C 246.226 260.425 246.313 260.247 246.401 260.07 Z"
opacity="1" fill="rgb(45,166,229)" fill-rule="evenodd" />
<path d="
M 268.442 369.317
C 269.156 368.99 269.77 368.902 270.552 368.908
C 271.407 369.636 271.859 370.757 272.011 371.854
C 268.543 372.513 264.888 375.51 262.352 377.85
C 253.11 386.375 249.316 400.095 253.886 411.967
C 255.14 415.226 256.931 418.169 259.224 420.796
C 260.331 422.063 262.475 423.389 263.074 424.943
C 262.782 425.736 261.898 426.962 261.063 427.234
C 260.595 426.917 260.112 426.622 259.599 426.385
C 256.214 424.056 253.666 419.807 251.939 416.122
C 243.89 398.944 251.232 377.693 268.442 369.317 Z"
opacity="1" fill="rgb(7,28,76)" fill-rule="evenodd" />
<path d="
M 251.364 242.381
C 256.116 241.762 259.771 243.936 262.087 248.106
C 261.801 248.673 260.889 248.833 260.361 249.106
C 258.417 250.11 256.4 250.96 254.453 251.954
C 253.978 251.403 253.796 250.43 253.498 249.748
C 252.519 247.497 251.444 244.856 251.364 242.381 Z"
opacity="1" fill="rgb(59,177,237)" fill-rule="evenodd" />
<path d="
M 272.011 371.854
C 282.312 383.428 285.386 401.222 275.457 414.174
C 273.401 416.857 271.156 419.33 268.395 421.308
C 266.828 422.431 264.246 423.452 263.074 424.943
C 262.475 423.389 260.331 422.063 259.224 420.796
C 256.931 418.169 255.14 415.226 253.886 411.967
C 249.316 400.095 253.11 386.375 262.352 377.85
C 264.888 375.51 268.543 372.513 272.011 371.854 Z"
opacity="1" fill="rgb(51,180,244)" fill-rule="evenodd" />
<path d="
M 256.418 254.983
C 258.591 253.472 261.213 252.357 263.703 251.501
C 264.462 254.929 263.664 259.031 261.499 261.818
C 261.012 262.445 260.356 263.603 259.591 263.894
C 258.469 260.978 256.656 258.484 256.052 255.346
C 256.174 255.225 256.296 255.104 256.418 254.983 Z"
opacity="1" fill="rgb(47,169,229)" fill-rule="evenodd" />
<path d="
M 267.394 283.022
C 268.032 281.801 268.543 280.499 269.11 279.242
C 269.674 278.938 270.877 280.155 271.383 280.516
C 272.985 281.658 274.684 282.633 276.372 283.635
C 276.954 283.98 277.642 284.538 278.337 284.467
C 279.466 281.543 280.411 278.421 281.879 275.655
C 283.82 275.643 285.742 276.587 287.162 277.86
C 287.469 278.865 286.441 280.201 285.972 281.022
C 284.774 283.116 283.53 285.291 282.533 287.485
C 282.998 288.489 284.248 289.096 285.154 289.716
C 286.975 290.963 289.324 292.388 290.64 294.181
C 290.511 295.505 289.214 296.769 288.511 297.866
C 288.302 298.19 288.022 298.846 287.623 298.925
C 285.789 296.665 283.257 293.591 280.575 292.341
C 278.942 295.829 277.248 299.473 275.471 302.867
C 274.197 301.63 272.707 300.642 271.346 299.473
C 271.082 298.665 271.938 297.407 272.291 296.651
C 273.37 294.334 274.984 291.929 275.774 289.521
C 273.409 287.404 269.83 285.836 267.119 284.126
C 267.2 283.36 267.107 283.728 267.394 283.022 Z"
opacity="1" fill="rgb(12,23,68)" fill-rule="evenodd" />
<path d="
M 270.417 210.567
C 272.316 204.941 279.319 202.44 284.742 204.045
C 291.078 205.921 298.393 214.153 298.232 221
C 298.03 229.559 286.074 232.896 280.562 227.338
C 282.111 226.267 284.142 225.006 285.923 224.388
C 286.859 224.591 287.561 225.205 288.586 225.213
C 290.773 225.229 292.985 222.913 292.521 220.719
C 292.266 219.517 290.929 215.379 289.66 215.983
C 286.386 227.26 267.377 221.89 270.417 210.567 Z
M 276.368 211.052
C 274.744 215.996 283.826 219.659 285.657 214.28
C 287.451 209.015 278.072 205.865 276.368 211.052 Z"
opacity="1" fill="rgb(14,24,70)" fill-rule="evenodd" />
<path d="
M 272.004 318.418
C 274.471 317.041 276.916 316.039 279.189 314.281
C 281.531 312.469 283.435 309.806 286.089 308.477
C 287.818 309.818 288.848 312.496 289.875 314.382
C 291.434 317.244 293.086 320.11 295.109 322.672
C 295.997 323.797 298.822 325.975 298.813 327.408
C 298.274 328.332 296.886 328.988 296.147 329.824
C 295.863 332.027 296.075 334.38 296.112 336.601
C 296.129 337.601 296.123 339.139 295.383 339.888
C 293.723 340.356 290.626 338.635 289.028 338.122
C 283.757 336.427 277.686 335.156 272.761 332.643
C 271.898 329.094 273.632 325.252 273.103 321.661
C 272.943 320.578 271.961 319.787 271.47 318.843
C 271.648 318.701 271.826 318.56 272.004 318.418 Z
M 276.461 321.118
C 276.726 324.289 276.241 327.487 276.188 330.659
C 282.029 331.416 287.332 334.752 293.03 335.913
C 293.274 335.579 292.822 333.295 292.828 332.783
C 292.857 330.292 293.092 328.732 293.977 326.461
C 292.383 324.336 290.55 322.504 289.108 320.234
C 287.765 318.121 287.036 315.817 285.987 313.607
C 284.853 314.057 283.827 315.352 282.801 316.068
C 280.806 317.46 278.397 318.584 276.621 320.247
C 276.428 320.833 276.476 320.542 276.461 321.118 Z"
opacity="1" fill="rgb(8,17,58)" fill-rule="evenodd" />
<path d="
M 273.881 265.064
C 274.799 261.894 276.4 259.017 278.05 256.177
C 285.734 242.949 298.414 233.752 313.359 230.435
C 317.886 229.43 323.529 228.019 328.177 228.843
C 328.335 229.877 328.817 231.845 328.393 232.787
C 323.081 232.926 317.758 232.931 312.583 234.363
C 296.032 238.944 282.792 250.804 277.763 267.325
C 276.932 267.778 274.792 266.434 273.991 266.065
C 273.71 265.482 273.777 265.81 273.881 265.064 Z"
opacity="1" fill="rgb(11,21,56)" fill-rule="evenodd" />
<path d="
M 275.087 136.103
C 279.589 135.571 284.304 136.061 288.842 135.898
C 288.551 131.416 288.971 126.641 289.13 122.141
C 290.986 122.19 294.828 121.443 296.431 122.304
C 296.19 125.673 296.525 129.142 296.56 132.523
C 296.569 133.41 296.238 135.416 296.899 135.972
C 301.308 135.511 305.949 136.076 310.389 135.965
C 310.242 138.299 310.05 141.16 310.437 143.462
C 305.879 143.308 301.249 143.41 296.698 143.68
C 296.178 148.039 296.034 153.092 296.413 157.464
C 294.093 157.472 291.687 157.247 289.38 157.509
C 288.496 154.652 289.158 150.505 289.131 147.502
C 289.121 146.489 289.537 144.503 288.905 143.674
C 284.419 143.711 279.888 143.124 275.403 143.497
C 274.677 141.324 275.236 138.389 275.087 136.103 Z"
opacity="1" fill="rgb(20,32,77)" fill-rule="evenodd" />
<path d="
M 276.461 321.118
C 276.476 320.542 276.428 320.833 276.621 320.247
C 278.397 318.584 280.806 317.46 282.801 316.068
C 283.827 315.352 284.853 314.057 285.987 313.607
C 287.036 315.817 287.765 318.121 289.108 320.234
C 290.55 322.504 292.383 324.336 293.977 326.461
C 293.092 328.732 292.857 330.292 292.828 332.783
C 292.822 333.295 293.274 335.579 293.03 335.913
C 287.332 334.752 282.029 331.416 276.188 330.659
C 276.241 327.487 276.726 324.289 276.461 321.118 Z"
opacity="1" fill="rgb(42,179,242)" fill-rule="evenodd" />
<path d="
M 278.753 95.486
C 284.137 90.794 289.474 85.331 294.224 80
C 293.5 78.492 291.324 77.137 290.134 75.951
C 287.694 73.517 285.31 71.026 282.863 68.598
C 281.559 67.303 279.896 65.993 278.985 64.382
C 281.884 61.576 284.582 58.514 287.553 55.793
C 289.1 56.908 290.416 58.56 291.766 59.915
C 295.446 63.611 299.133 67.722 303.223 70.959
C 303.626 70.957 303.997 70.404 304.252 70.131
C 305.187 69.133 306.17 68.174 307.147 67.218
C 310.951 63.499 314.738 58.993 319 55.837
C 321.891 58.601 324.949 61.431 327.566 64.453
C 326.186 66.391 324.071 67.998 322.399 69.696
C 319.003 73.143 315.672 76.682 312.17 80.017
C 316.319 82.888 319.776 87.548 323.262 91.181
C 324.428 92.395 326.774 94.133 327.226 95.722
C 326.077 98.012 323.039 100.175 321.196 101.96
C 320.511 102.623 319.698 103.847 318.705 104.018
C 314.766 100.634 311.251 96.596 307.56 92.936
C 306.287 91.673 304.752 89.444 303.173 88.644
C 299.469 92.471 295.584 96.169 291.753 99.877
C 290.552 101.039 288.811 103.724 287.104 103.967
C 284.367 101.276 281.032 98.568 278.753 95.486 Z"
opacity="1" fill="rgb(55,178,243)" fill-rule="evenodd" />
<path d="
M 290.477 528.618
C 291.387 520.324 291.957 512.529 296.805 505.368
C 306.507 491.034 330.226 486.926 344.361 497.156
C 348.846 500.403 352.218 504.922 353.958 510.19
C 354.479 511.768 354.918 513.458 355.176 515.1
C 355.298 515.873 355.322 517.502 355.785 518.107
C 354.767 517.676 353.116 517.956 352.004 517.938
C 349.167 517.894 346.27 517.735 343.44 517.961
C 342.952 516.928 343.069 515.523 342.751 514.394
C 342.038 511.865 340.691 509.325 338.812 507.466
C 330.288 499.035 313.342 501.078 307.229 511.372
C 301.474 521.065 301.709 535.627 305.784 545.891
C 311.414 560.067 335.701 563.004 342.157 548.033
C 342.914 546.279 343.294 544.323 343.4 542.421
C 346.232 542.192 349.162 542.362 352.007 542.335
C 353.021 542.325 354.461 542.017 355.393 542.425
C 354.471 548.59 353.427 553.891 349.117 558.773
C 338.396 570.913 316.24 571.079 303.684 561.874
C 293.432 554.359 289.966 540.783 290.477 528.618 Z"
opacity="1" fill="rgb(51,174,239)" fill-rule="evenodd" />
<path d="
M 293.827 270.061
C 295.96 265.585 296.896 260.242 300.989 257.147
C 304.838 261.262 308.436 265.615 312.302 269.712
C 316.049 273.683 320.05 277.669 323.49 281.899
C 322.381 283.659 320.029 285.165 318.408 286.471
C 316.832 286.104 314.875 282.77 313.75 281.587
C 309.35 276.958 304.179 272.32 300.424 267.168
C 299.887 268.977 299.041 272.337 297.514 273.515
C 296.008 273.324 294.749 271.473 293.762 270.465
C 293.784 270.331 293.806 270.196 293.827 270.061 Z"
opacity="1" fill="rgb(15,27,74)" fill-rule="evenodd" />
<path d="
M 296.653 394.713
C 307.169 394.012 317.962 394.702 328.51 394.647
C 334.177 394.618 339.844 394.609 345.511 394.659
C 348.325 394.683 351.296 394.404 354.086 394.77
C 354.076 398.93 353.951 403.167 354.155 407.322
C 346.308 407.749 338.363 407.41 330.506 407.421
C 319.337 407.436 308.135 407.665 296.97 407.384
C 296.352 406.874 296.705 404.871 296.7 404.048
C 296.679 400.949 296.83 397.805 296.653 394.713 Z"
opacity="1" fill="rgb(50,179,243)" fill-rule="evenodd" />
<path d="
M 296.675 416.758
C 308.442 416.45 320.237 416.686 332.008 416.655
C 339.294 416.635 346.946 416.02 354.192 416.778
C 353.949 419.641 354.217 422.631 354.23 425.508
C 354.236 426.822 353.933 428.554 354.287 429.803
C 341.36 429.738 328.432 429.782 315.505 429.776
C 309.322 429.773 302.818 430.317 296.672 429.738
C 296.568 425.417 296.83 421.078 296.675 416.758 Z"
opacity="1" fill="rgb(49,175,243)" fill-rule="evenodd" />
<path d="
M 311.882 297.87
C 312.16 296.543 315.076 296.056 316.209 295.525
C 320.571 293.482 324.337 290.723 328.296 288.024
C 343.768 277.473 358.618 265.803 373.488 254.428
C 377.924 251.035 382.363 247.639 386.375 243.737
C 387.089 243.044 389.98 240.729 389.904 239.967
C 390.242 240.572 390.094 241.404 390.063 242.069
C 389.979 243.872 390.04 245.696 390.059 247.5
C 390.13 254.339 389.768 261.161 389.865 267.997
C 389.989 276.795 389.795 285.604 389.858 294.406
C 389.914 302.293 390.269 310.137 386.217 317.221
C 382.278 324.109 374.548 327.841 367.903 331.679
C 360.1 336.185 352.599 341.227 344.784 345.743
C 333.141 352.47 321.393 363.688 307.01 360.829
C 306.318 359.938 307.465 357.608 307.796 356.651
C 309.037 353.057 309.227 349.221 309.547 345.463
C 310.029 339.814 310.028 334.133 310.414 328.478
C 311.111 318.277 311.772 308.099 311.882 297.87 Z
M 321.935 318.089
C 320.95 324.061 322.856 331.924 330.261 331.661
C 331.342 331.623 332.464 331.417 333.48 331.044
C 340.009 328.646 345.267 321.541 346.292 314.757
C 347.228 308.56 345.806 300.845 337.984 301.163
C 336.801 301.211 335.627 301.432 334.532 301.887
C 328.145 304.543 323.058 311.284 321.935 318.089 Z
M 352.455 330.107
C 351.908 335.122 355.58 337.819 360.109 335.195
C 363.331 333.328 365.298 329.264 365.674 325.664
C 365.898 323.524 365.211 320.757 362.566 320.793
C 361.234 320.811 360.007 321.536 358.977 322.337
C 358.734 322.525 357.152 323.718 357.424 323.192
C 357.981 321.81 358.845 319.417 360.01 318.442
C 361.657 317.064 364.948 317.968 366.89 317.761
C 367.363 317.176 368.633 313.472 368.253 312.764
C 364.768 313.03 360.945 313.414 357.517 314.071
C 356.465 315.326 356.044 317.07 355.456 318.582
C 353.992 322.35 352.983 326.093 352.455 330.107 Z
M 361.805 273.434
C 361.565 274.479 361.778 275.729 362.201 276.713
C 363.539 276.382 364.81 275.319 366.025 274.679
C 366.575 274.956 365.894 278.556 365.841 279.325
C 365.52 283.982 365.298 288.968 364.327 293.536
C 365.47 293.694 367.409 293.159 368.519 292.832
C 369.184 287.994 369.26 283.088 369.727 278.228
C 370.035 275.02 370.916 271.556 370.606 268.328
C 367.217 269.034 364.449 271.278 361.805 273.434 Z
M 372.896 285.568
C 372.398 290.168 376.897 290.984 380.381 290.107
C 384.376 289.101 387.095 285.873 387.411 281.772
C 387.629 278.933 385.35 278.545 384.282 276.547
C 385.466 275.93 386.204 274.912 386.835 273.747
C 388.52 269.52 386.382 265.408 381.478 266.199
C 377.854 266.783 374.699 269.981 374.088 273.57
C 374.827 274.276 376.272 274.507 377.257 274.181
C 378.574 272.818 379.224 270.806 381.262 270.298
C 383.012 270.624 383.454 272.298 382.713 273.787
C 381.955 275.309 380.003 276.06 378.951 277.36
C 378.498 277.92 377.987 278.724 378.359 279.408
C 379.499 279.744 380.726 279.682 381.796 280.226
C 384.381 282.618 381.377 288.377 378.083 286.323
C 377.631 285.61 377.185 284.857 376.803 284.107
C 375.636 283.443 373.962 284.248 373.107 285.069
C 373.037 285.236 372.966 285.402 372.896 285.568 Z"
opacity="1" fill="rgb(221,221,221)" fill-rule="evenodd" />
<path d="
M 309.902 204.086
C 311.214 197.014 318.925 193.973 325.434 194.88
C 332.707 195.894 338.792 202.408 337.33 209.906
C 336.401 214.664 332.044 217.713 327.546 218.62
C 319.053 220.332 308.122 213.683 309.902 204.086 Z
M 313.439 205.617
C 313.192 212.382 321.702 216.067 327.379 214.781
C 330.477 214.079 334.05 211.497 334.05 207.987
C 334.048 201.57 327.292 197.679 321.505 198.195
C 317.517 198.551 313.595 201.343 313.439 205.617 Z"
opacity="1" fill="rgb(10,25,69)" fill-rule="evenodd" />
<path d="
M 311.442 252.596
C 312.434 247.453 316.927 243.536 322.038 242.641
C 325.798 241.981 331.012 243.429 331.87 247.807
C 332.149 249.234 331.837 250.787 331.51 252.171
C 334.214 252.706 336.523 251.672 339.109 253.293
C 343.073 255.777 343.774 260.876 341.965 264.921
C 339.994 269.331 334.871 273.247 329.962 273.361
C 325.582 273.462 320.455 270.725 319.937 265.983
C 319.723 264.02 320.334 262.7 320.958 260.908
C 315.508 262.447 310.906 257.929 311.442 252.596 Z
M 317.891 252.081
C 316.979 256.783 325.113 257.637 325.874 253.401
C 326.928 247.537 318.935 246.704 317.891 252.081 Z
M 325.902 262.114
C 325.345 268.754 335.688 268.61 336.35 262.503
C 337.075 255.822 326.418 255.97 325.902 262.114 Z"
opacity="1" fill="rgb(16,28,75)" fill-rule="evenodd" />
<path d="
M 313.439 205.617
C 313.595 201.343 317.517 198.551 321.505 198.195
C 327.292 197.679 334.048 201.57 334.05 207.987
C 334.05 211.497 330.477 214.079 327.379 214.781
C 321.702 216.067 313.192 212.382 313.439 205.617 Z"
opacity="1" fill="rgb(47,179,238)" fill-rule="evenodd" />
<path d="
M 321.935 318.089
C 323.058 311.284 328.145 304.543 334.532 301.887
C 335.627 301.432 336.801 301.211 337.984 301.163
C 345.806 300.845 347.228 308.56 346.292 314.757
C 345.267 321.541 340.009 328.646 333.48 331.044
C 332.464 331.417 331.342 331.623 330.261 331.661
C 322.856 331.924 320.95 324.061 321.935 318.089 Z
M 325.433 318.09
C 324.609 322.57 326.03 329.009 331.91 327.838
C 332.841 327.653 333.72 327.245 334.547 326.789
C 338.889 324.398 342.13 319.172 343.003 314.356
C 343.778 310.085 342.449 303.793 336.75 304.936
C 336.036 305.08 335.288 305.297 334.638 305.633
C 329.874 308.093 326.399 312.827 325.433 318.09 Z"
opacity="1" fill="rgb(11,26,66)" fill-rule="evenodd" />
<path d="
M 322.273 150.009
C 323.964 146.133 326.649 142.524 328.716 138.828
C 333.257 130.709 338.03 122.719 342.589 114.609
C 345.107 110.13 347.61 105.642 350.129 101.163
C 351.505 98.717 352.58 95.825 354.445 93.723
C 356.945 93.583 357.662 96.035 358.643 97.872
C 361.096 102.471 363.796 106.94 366.357 111.479
C 375.803 128.222 385.34 144.92 394.86 161.619
C 397.233 165.782 399.772 169.85 402.124 174.025
C 402.821 175.262 404.555 177.184 404.053 178.65
C 402.802 179.698 400.919 179.426 399.405 179.414
C 396.107 179.386 392.81 179.349 389.512 179.341
C 379.346 179.317 369.18 179.427 359.015 179.383
C 355.847 179.369 352.68 179.348 349.512 179.334
C 348.165 179.328 346.521 179.615 345.228 179.245
C 343.376 177.487 341.871 175.21 340.244 173.238
C 336.815 169.08 333.434 164.891 330.041 160.704
C 327.518 157.591 323.861 154.239 322.239 150.56
C 322.25 150.377 322.262 150.193 322.273 150.009 Z
M 326.31 150.075
C 326.314 150.258 326.317 150.441 326.321 150.623
C 333.98 158.158 339.461 167.801 346.801 175.635
C 347.977 176.127 349.738 175.765 351.007 175.764
C 354.174 175.761 357.771 176.334 360.884 175.803
C 362.427 174.261 363.422 171.922 364.718 170.154
C 368.672 164.763 372.292 159.104 375.939 153.501
C 377.165 151.618 378.427 149.74 379.752 147.925
C 380.228 147.273 381.3 146.261 381.404 145.432
C 381.518 144.527 380.127 143.08 379.678 142.345
C 377.861 139.368 376.224 136.28 374.469 133.266
C 367.97 122.101 361.338 110.845 355.363 99.397
C 351.697 104.478 349.056 110.639 345.865 116.049
C 339.216 127.319 332.745 138.683 326.31 150.075 Z
M 365.184 175.739
C 368.118 176.654 372.433 175.9 375.512 175.906
C 383.343 175.921 391.303 175.533 399.11 175.84
C 399.02 175.225 398.193 174.513 397.866 173.967
C 396.872 172.307 395.833 170.673 394.895 168.98
C 391.2 162.315 387.394 155.68 383.575 149.092
C 376.552 157.204 371.796 167.28 365.184 175.739 Z"
opacity="1" fill="rgb(10,26,72)" fill-rule="evenodd" />
<path d="
M 325.433 318.09
C 326.399 312.827 329.874 308.093 334.638 305.633
C 335.288 305.297 336.036 305.08 336.75 304.936
C 342.449 303.793 343.778 310.085 343.003 314.356
C 342.13 319.172 338.889 324.398 334.547 326.789
C 333.72 327.245 332.841 327.653 331.91 327.838
C 326.03 329.009 324.609 322.57 325.433 318.09 Z"
opacity="1" fill="rgb(37,176,239)" fill-rule="evenodd" />
<path d="
M 326.31 150.075
C 332.745 138.683 339.216 127.319 345.865 116.049
C 349.056 110.639 351.697 104.478 355.363 99.397
C 361.338 110.845 367.97 122.101 374.469 133.266
C 376.224 136.28 377.861 139.368 379.678 142.345
C 380.127 143.08 381.518 144.527 381.404 145.432
C 381.3 146.261 380.228 147.273 379.752 147.925
C 378.427 149.74 377.165 151.618 375.939 153.501
C 372.292 159.104 368.672 164.763 364.718 170.154
C 363.422 171.922 362.427 174.261 360.884 175.803
C 357.771 176.334 354.174 175.761 351.007 175.764
C 349.738 175.765 347.977 176.127 346.801 175.635
C 339.461 167.801 333.98 158.158 326.321 150.623
C 326.317 150.441 326.314 150.258 326.31 150.075 Z"
opacity="1" fill="rgb(52,181,242)" fill-rule="evenodd" />
<path d="
M 420.382 260.88
C 419.611 264.177 420.14 268.062 420.001 271.448
C 419.741 277.814 419.117 284.145 418.103 290.437
C 414.175 314.814 403.665 341.282 379.026 350.945
C 374.848 352.583 370.407 353.744 365.952 354.3
C 359.37 355.122 351.953 355.678 345.404 354.312
C 345.928 353.062 348.009 352.172 349.116 351.484
C 352.108 349.625 355.107 347.787 358.134 345.987
C 363.964 342.521 369.64 338.807 375.499 335.391
C 380.458 332.501 385.674 329.647 389.396 325.171
C 397.83 315.027 397.103 302.424 397.07 290.024
C 397.06 286.291 396.26 281.451 397.257 277.857
C 402.007 274.136 406.86 270.492 411.725 266.917
C 414.555 264.839 417.254 262.5 420.382 260.88 Z"
opacity="1" fill="rgb(51,178,242)" fill-rule="evenodd" />
<path d="
M 345.97 229.102
C 346.474 226.586 347.729 223.283 349.981 221.826
C 352.421 220.248 356.055 219.953 358.874 219.548
C 360.78 219.274 363.122 218.536 365.041 218.974
C 366.093 219.214 367.116 220.176 368.031 220.722
C 370.667 222.296 373.704 223.908 375.555 226.432
C 377.585 229.198 375.119 233.318 374.515 236.231
C 374.312 237.215 374.791 237.896 374.798 238.817
C 369.938 240.044 365.611 241.788 360.514 241.929
C 359.205 241.965 356.902 242.381 355.727 241.72
C 353.619 240.534 351.737 237.585 350.101 235.809
C 348.379 233.94 345.882 231.827 345.97 229.102 Z
M 349.825 227.517
C 348.937 230.494 351.937 232.889 353.75 234.922
C 354.793 236.091 355.995 237.594 357.433 238.289
C 358.54 238.824 359.911 238.581 361.09 238.506
C 363.995 238.321 368.25 238.16 370.629 236.235
C 372.24 234.932 373.03 230.072 372.895 228.102
C 370.768 225.667 366.803 222.918 363.541 222.539
C 361.736 222.328 359.823 222.759 358.033 222.995
C 354.428 223.472 351.605 224.191 349.825 227.517 Z"
opacity="1" fill="rgb(10,23,65)" fill-rule="evenodd" />
<path d="
M 349.825 227.517
C 351.605 224.191 354.428 223.472 358.033 222.995
C 359.823 222.759 361.736 222.328 363.541 222.539
C 366.803 222.918 370.768 225.667 372.895 228.102
C 373.03 230.072 372.24 234.932 370.629 236.235
C 368.25 238.16 363.995 238.321 361.09 238.506
C 359.911 238.581 358.54 238.824 357.433 238.289
C 355.995 237.594 354.793 236.091 353.75 234.922
C 351.937 232.889 348.937 230.494 349.825 227.517 Z"
opacity="1" fill="rgb(34,177,239)" fill-rule="evenodd" />
<path d="
M 350.394 59.58
C 350.41 59.332 350.426 59.084 350.442 58.837
C 360.435 58.932 370.627 59.199 380.606 58.72
C 380.753 60.759 380.152 63.695 380.826 65.598
C 374.052 65.958 367.103 65.534 360.309 65.548
C 357.265 65.554 353.269 66.286 350.337 65.582
C 350.458 63.588 350.298 61.578 350.394 59.58 Z"
opacity="1" fill="rgb(22,33,84)" fill-rule="evenodd" />
<path d="
M 350.395 71.261
C 357.902 70.886 365.488 71.198 373.006 71.22
C 374.837 71.226 376.669 71.257 378.5 71.244
C 379.149 71.239 380.374 71.022 380.856 71.449
C 380.703 73.526 380.422 76.198 380.842 78.237
C 370.812 78.229 360.722 77.662 350.697 78.168
C 349.751 76.4 350.479 73.24 350.395 71.261 Z"
opacity="1" fill="rgb(20,31,75)" fill-rule="evenodd" />
<path d="
M 352.455 330.107
C 352.983 326.093 353.992 322.35 355.456 318.582
C 356.044 317.07 356.465 315.326 357.517 314.071
C 360.945 313.414 364.768 313.03 368.253 312.764
C 368.633 313.472 367.363 317.176 366.89 317.761
C 364.948 317.968 361.657 317.064 360.01 318.442
C 358.845 319.417 357.981 321.81 357.424 323.192
C 357.152 323.718 358.734 322.525 358.977 322.337
C 360.007 321.536 361.234 320.811 362.566 320.793
C 365.211 320.757 365.898 323.524 365.674 325.664
C 365.298 329.264 363.331 333.328 360.109 335.195
C 355.58 337.819 351.908 335.122 352.455 330.107 Z
M 355.955 330.128
C 355.984 330.885 356.107 331.335 356.651 331.879
C 360.197 333.472 361.473 327.826 361.315 325.403
C 360.687 324.958 359.604 325.546 358.98 325.883
C 357.349 326.766 356.215 328.323 355.955 330.128 Z"
opacity="1" fill="rgb(12,18,57)" fill-rule="evenodd" />
<path d="
M 361.805 273.434
C 364.449 271.278 367.217 269.034 370.606 268.328
C 370.916 271.556 370.035 275.02 369.727 278.228
C 369.26 283.088 369.184 287.994 368.519 292.832
C 367.409 293.159 365.47 293.694 364.327 293.536
C 365.298 288.968 365.52 283.982 365.841 279.325
C 365.894 278.556 366.575 274.956 366.025 274.679
C 364.81 275.319 363.539 276.382 362.201 276.713
C 361.778 275.729 361.565 274.479 361.805 273.434 Z"
opacity="1" fill="rgb(12,20,59)" fill-rule="evenodd" />
<path d="
M 365.184 175.739
C 371.796 167.28 376.552 157.204 383.575 149.092
C 387.394 155.68 391.2 162.315 394.895 168.98
C 395.833 170.673 396.872 172.307 397.866 173.967
C 398.193 174.513 399.02 175.225 399.11 175.84
C 391.303 175.533 383.343 175.921 375.512 175.906
C 372.433 175.9 368.118 176.654 365.184 175.739 Z"
opacity="1" fill="rgb(52,180,245)" fill-rule="evenodd" />
<path d="
M 367.862 491.313
C 368.951 490.923 370.324 491.109 371.473 491.118
C 374.067 491.138 376.661 491.142 379.255 491.139
C 380.123 494.166 379.425 498.265 379.462 501.416
C 379.537 507.984 380.041 514.659 379.769 521.215
C 379.773 521.226 381.524 518.446 381.763 518.11
C 383.381 515.839 385.622 514.122 388.138 512.965
C 395.281 509.682 405.079 510.399 411.229 515.461
C 416.754 520.008 417.376 527.389 417.408 534.003
C 417.447 541.835 417.334 549.669 417.319 557.501
C 417.314 560.184 416.558 564.196 417.327 566.736
C 413.473 566.676 409.52 566.893 405.683 566.685
C 405.692 557.349 405.761 548.005 405.677 538.668
C 405.636 534.038 406.132 528.836 403.149 524.952
C 398.151 518.446 385.481 519.77 381.709 526.901
C 379.505 531.069 379.669 535.415 379.668 540.005
C 379.667 545.172 379.679 550.338 379.688 555.505
C 379.694 558.932 378.94 563.419 379.766 566.731
C 376.844 566.737 373.922 566.636 371 566.618
C 370.154 566.613 368.615 567.005 367.898 566.587
C 368.029 549.727 368.002 532.857 367.934 515.995
C 367.901 507.825 368.448 499.458 367.862 491.313 Z"
opacity="1" fill="rgb(53,174,239)" fill-rule="evenodd" />
<path d="
M 368.915 381.001
C 373.955 375.739 380.802 371.86 386.434 367.225
C 397.744 357.918 409.306 348.894 420.88 339.918
C 426.188 335.802 431.416 331.545 436.615 327.295
C 439.112 325.253 441.603 322.224 444.587 320.924
C 445.495 320.836 446.085 321.058 446.65 321.752
C 447.12 323.394 446.861 325.307 446.85 326.999
C 446.829 330.166 446.873 333.333 446.868 336.5
C 446.855 346.667 446.926 356.834 446.882 367.001
C 446.866 370.665 446.862 374.331 446.816 377.995
C 446.797 379.597 447.142 381.613 446.387 383.075
C 445.175 384.066 442.969 383.713 441.5 383.707
C 437.833 383.692 434.166 383.71 430.5 383.718
C 415.835 383.75 401.171 383.812 386.506 383.81
C 382.273 383.81 378.039 383.777 373.806 383.803
C 372.596 383.811 370.08 384.221 369.13 383.35
C 368.791 382.775 368.686 382.243 368.604 381.582
C 368.707 381.388 368.811 381.194 368.915 381.001 Z
M 376.199 380.173
C 377.042 380.501 378.211 380.306 379.109 380.311
C 381.573 380.326 384.04 380.254 386.505 380.238
C 394.837 380.185 403.17 380.13 411.502 380.116
C 414.281 380.111 417.059 380.106 419.838 380.106
C 420.644 380.107 422.277 380.471 423.003 380.096
C 422.55 377.317 422.85 374.317 422.833 371.498
C 422.812 367.666 422.527 363.717 422.894 359.903
C 423.799 358.888 426.702 359.428 428.007 359.42
C 433.132 359.391 438.293 359.523 443.396 359.462
C 442.907 351.89 443.355 344.096 443.411 336.503
C 443.434 333.373 443.743 330.002 443.259 326.906
C 440.188 328.368 437.31 331.297 434.649 333.425
C 429.614 337.452 424.505 341.388 419.471 345.42
C 409.689 353.251 399.692 360.864 390.052 368.864
C 385.52 372.626 380.288 375.944 376.199 380.173 Z
M 426.433 363.439
C 426.278 369.032 426.606 374.675 426.328 380.256
C 431.961 380.222 437.784 379.5 443.407 379.945
C 443.016 378.071 443.283 375.915 443.29 374.002
C 443.303 370.496 443.32 366.988 443.375 363.482
C 443.001 362.877 440.209 363.279 439.505 363.278
C 436.519 363.27 433.526 363.318 430.541 363.251
C 429.36 363.224 427.421 362.785 426.433 363.439 Z"
opacity="1" fill="rgb(9,24,72)" fill-rule="evenodd" />
<path d="
M 372.896 285.568
C 372.966 285.402 373.037 285.236 373.107 285.069
C 373.962 284.248 375.636 283.443 376.803 284.107
C 377.185 284.857 377.631 285.61 378.083 286.323
C 381.377 288.377 384.381 282.618 381.796 280.226
C 380.726 279.682 379.499 279.744 378.359 279.408
C 377.987 278.724 378.498 277.92 378.951 277.36
C 380.003 276.06 381.955 275.309 382.713 273.787
C 383.454 272.298 383.012 270.624 381.262 270.298
C 379.224 270.806 378.574 272.818 377.257 274.181
C 376.272 274.507 374.827 274.276 374.088 273.57
C 374.699 269.981 377.854 266.783 381.478 266.199
C 386.382 265.408 388.52 269.52 386.835 273.747
C 386.204 274.912 385.466 275.93 384.282 276.547
C 385.35 278.545 387.629 278.933 387.411 281.772
C 387.095 285.873 384.376 289.101 380.381 290.107
C 376.897 290.984 372.398 290.168 372.896 285.568 Z"
opacity="1" fill="rgb(10,17,61)" fill-rule="evenodd" />
<path d="
M 376.199 380.173
C 380.288 375.944 385.52 372.626 390.052 368.864
C 399.692 360.864 409.689 353.251 419.471 345.42
C 424.505 341.388 429.614 337.452 434.649 333.425
C 437.31 331.297 440.188 328.368 443.259 326.906
C 443.743 330.002 443.434 333.373 443.411 336.503
C 443.355 344.096 442.907 351.89 443.396 359.462
C 438.293 359.523 433.132 359.391 428.007 359.42
C 426.702 359.428 423.799 358.888 422.894 359.903
C 422.527 363.717 422.812 367.666 422.833 371.498
C 422.85 374.317 422.55 377.317 423.003 380.096
C 422.277 380.471 420.644 380.107 419.838 380.106
C 417.059 380.106 414.281 380.111 411.502 380.116
C 403.17 380.13 394.837 380.185 386.505 380.238
C 384.04 380.254 381.573 380.326 379.109 380.311
C 378.211 380.306 377.042 380.501 376.199 380.173 Z"
opacity="1" fill="rgb(48,179,244)" fill-rule="evenodd" />
<path d="
M 379.908 397.588
C 380.113 396.822 380.277 396.357 380.944 395.875
C 383.061 395.465 385.415 397.869 387.077 398.951
C 391.689 401.956 396.613 404.489 401.312 407.355
C 402.728 408.219 406.539 409.505 406.337 411.516
C 406.039 413.496 402.284 414.819 400.759 415.716
C 396.365 418.303 391.829 420.705 387.539 423.464
C 385.819 424.571 383.571 426.779 381.499 426.998
C 380.727 426.802 380.306 426.333 379.937 425.649
C 379.225 422.551 379.896 418.684 379.903 415.505
C 379.916 409.585 379.466 403.486 379.908 397.588 Z
M 383.372 401.352
C 383.223 408.035 383.786 414.767 383.438 421.436
C 387.223 419.16 391.028 416.849 394.864 414.659
C 396.289 413.846 397.674 412.976 399.084 412.14
C 399.57 411.852 400.362 411.747 400.748 411.357
C 396.444 408.846 392.022 406.492 387.801 403.81
C 386.777 403.159 384.48 400.918 383.372 401.352 Z"
opacity="1" fill="rgb(9,21,66)" fill-rule="evenodd" />
<path d="
M 383.372 401.352
C 384.48 400.918 386.777 403.159 387.801 403.81
C 392.022 406.492 396.444 408.846 400.748 411.357
C 400.362 411.747 399.57 411.852 399.084 412.14
C 397.674 412.976 396.289 413.846 394.864 414.659
C 391.028 416.849 387.223 419.16 383.438 421.436
C 383.786 414.767 383.223 408.035 383.372 401.352 Z"
opacity="1" fill="rgb(51,177,240)" fill-rule="evenodd" />
<path d="
M 397.319 254.334
C 401.197 254.017 405.296 255.344 409.086 256.056
C 411.753 256.558 414.983 256.739 417.47 257.823
C 412.33 261.688 407.085 265.485 402.095 269.544
C 400.907 270.51 399.694 271.498 398.421 272.352
C 398.066 272.59 397.583 273.092 397.195 272.83
C 397.256 266.776 396.58 260.343 397.319 254.334 Z"
opacity="1" fill="rgb(47,174,241)" fill-rule="evenodd" />
<path d="
M 405.668 206.48
C 407.806 204.683 409.651 202.345 411.501 200.256
C 412.697 200.821 413.818 202.455 414.772 203.409
C 417.569 206.204 420.222 209.275 423.202 211.871
C 424.227 211.407 425.139 210.055 425.963 209.28
C 428.895 206.523 431.755 202.605 435.082 200.395
C 437.05 201.823 439.624 204.471 441.103 206.413
C 438.214 210.717 433.454 214.048 430.059 217.975
C 430.471 219.136 431.668 220.034 432.494 220.935
C 434.288 222.891 436.034 224.891 437.931 226.75
C 438.509 227.317 441.069 229.221 440.849 229.931
C 439.147 232.214 436.889 234.253 434.966 236.361
C 433.842 235.564 432.975 234.227 431.998 233.25
C 429.968 231.221 427.889 229.241 425.806 227.267
C 424.98 226.484 424.029 225.298 423.042 224.772
C 420.703 227.719 417.591 230.34 414.855 232.931
C 413.821 233.91 412.75 235.526 411.537 236.229
C 410.161 234.913 408.854 233.486 407.513 232.132
C 406.833 231.446 405.979 230.766 405.831 229.799
C 408.971 225.509 413.476 222.17 416.838 218.025
C 415.697 217.481 414.583 215.869 413.7 214.949
C 411.846 213.019 410.002 211.071 408.106 209.183
C 407.31 208.39 406.126 207.491 405.668 206.48 Z"
opacity="1" fill="rgb(53,176,241)" fill-rule="evenodd" />
<path d="
M 415.505 140.03
C 418.551 137.527 421.259 134.472 424.011 131.655
C 425.703 129.923 427.691 128.287 429.121 126.331
C 426.607 124.524 424.491 121.877 422.356 119.648
C 420.098 117.291 417.529 115.071 415.576 112.451
C 417.784 109.903 420.38 107.7 422.609 105.161
C 423.503 105.017 425.519 107.75 426.22 108.467
C 429.608 111.933 432.886 115.832 436.582 118.958
C 439.09 115.901 442.158 113.208 444.983 110.438
C 446.756 108.7 448.467 106.472 450.503 105.057
C 452.72 107.56 455.975 109.75 457.797 112.53
C 456.536 114.3 454.476 115.835 452.956 117.415
C 450.176 120.306 447.429 123.572 444.322 126.102
C 444.846 127.305 446.517 128.606 447.438 129.594
C 449.726 132.047 452.08 134.438 454.44 136.82
C 455.262 137.649 457.645 139.307 457.922 140.368
C 456.134 143.048 452.865 145.683 450.514 147.908
C 448.985 147.118 447.701 145.109 446.487 143.879
C 443.297 140.65 440.035 136.837 436.444 134.077
C 433.71 137.111 430.667 139.885 427.793 142.794
C 426.122 144.484 424.496 146.699 422.471 147.955
C 421.474 147.439 420.707 146.167 419.952 145.346
C 418.404 143.661 416.592 142.205 415.158 140.419
C 415.274 140.289 415.389 140.159 415.505 140.03 Z"
opacity="1" fill="rgb(20,30,78)" fill-rule="evenodd" />
<path d="
M 426.433 363.439
C 427.421 362.785 429.36 363.224 430.541 363.251
C 433.526 363.318 436.519 363.27 439.505 363.278
C 440.209 363.279 443.001 362.877 443.375 363.482
C 443.32 366.988 443.303 370.496 443.29 374.002
C 443.283 375.915 443.016 378.071 443.407 379.945
C 437.784 379.5 431.961 380.222 426.328 380.256
C 426.606 374.675 426.278 369.032 426.433 363.439 Z"
opacity="1" fill="rgb(49,179,245)" fill-rule="evenodd" />
<path d="
M 427.951 159.1
C 428.104 157.819 428.505 156.51 429.157 155.393
C 434.127 146.885 446.947 152.134 445.703 161.544
C 445.538 162.786 445.071 163.935 444.399 164.987
C 439.456 172.717 426.846 168.35 427.951 159.1 Z"
opacity="1" fill="rgb(20,30,81)" fill-rule="evenodd" />
<path d="
M 429.459 548.082
C 430.058 546.123 430.711 544.17 431.92 542.483
C 436.848 535.603 448.035 534.726 455.807 534.286
C 458.718 534.121 462 534.074 464.777 533.132
C 465.327 532.287 465.214 531.128 465.194 530.154
C 465.127 527.006 464.325 524.017 461.492 522.271
C 455.01 518.276 443.312 520.525 442.48 529.128
C 441.96 529.529 440.353 529.175 439.709 529.154
C 436.967 529.064 434.099 528.902 431.367 529.091
C 432.509 524.471 433.254 520.077 436.973 516.655
C 439.574 514.262 442.877 512.815 446.293 512.033
C 455.78 509.86 468.657 510.925 474.094 520.176
C 477.058 525.221 476.834 530.853 476.83 536.5
C 476.824 542.834 476.918 549.169 476.907 555.503
C 476.9 559.169 476.477 563.134 477.107 566.748
C 476.18 566.5 474.972 566.698 474.01 566.687
C 471.218 566.654 468.408 566.73 465.619 566.642
C 465.588 564.759 465.558 562.86 465.591 560.978
C 465.602 560.388 465.878 559.26 465.537 558.759
C 460.716 564.983 454.925 568.025 446.933 567.971
C 435.963 567.897 426.842 559.551 429.459 548.082 Z
M 440.935 549.593
C 440.749 550.682 440.681 551.839 440.857 552.935
C 442.049 560.368 452.992 559.837 458.042 557.344
C 461.024 555.872 463.851 553.279 464.597 549.893
C 465.187 547.217 464.91 544.351 465.182 541.628
C 460.109 541.991 455.049 542.179 450.024 543.01
C 445.719 543.723 442.226 545.116 440.935 549.593 Z"
opacity="1" fill="rgb(49,174,240)" fill-rule="evenodd" />
<path d="
M 433.417 266.301
C 435.075 265.793 437.274 266.232 439.009 266.234
C 443.008 266.239 447.008 266.232 451.008 266.226
C 463.727 266.207 476.624 265.527 489.323 266.122
C 490.185 270.055 488.938 274.479 489.423 278.467
C 475.954 278.545 462.476 278.506 449.004 278.5
C 445.324 278.498 441.645 278.514 437.968 278.507
C 436.725 278.505 434.602 278.849 433.564 278.189
C 433.116 274.273 433.551 270.236 433.417 266.301 Z"
opacity="1" fill="rgb(19,32,81)" fill-rule="evenodd" />
<path d="
M 433.854 287.434
C 447.376 287.35 460.904 287.468 474.428 287.429
C 477.965 287.419 481.477 287.438 485.007 287.55
C 486.238 287.589 488.509 287.152 489.493 287.92
C 489.641 291.96 489.351 296.087 489.638 300.114
C 486.67 299.676 483.508 299.915 480.503 299.914
C 475.169 299.91 469.835 299.927 464.501 299.93
C 457.835 299.934 451.168 299.934 444.502 299.924
C 440.995 299.92 437.37 299.66 433.878 299.99
C 433.247 299.162 433.608 297.577 433.607 296.552
C 433.605 293.634 433.535 290.711 433.661 287.796
C 433.726 287.675 433.79 287.554 433.854 287.434 Z"
opacity="1" fill="rgb(21,32,81)" fill-rule="evenodd" />
<path d="
M 455.386 237.014
C 460.219 229.254 466.041 221.823 470.416 213.815
C 470.333 213.115 469.697 212.569 469.33 211.992
C 468.36 210.471 467.387 208.952 466.411 207.435
C 463.786 203.352 461.213 199.218 458.729 195.047
C 457.687 193.297 456.042 191.433 455.634 189.419
C 458.713 187.081 462.559 184.755 466.052 183.109
C 467.059 185.887 469.445 188.664 471.097 191.121
C 473.516 194.718 475.632 198.574 478.125 202.105
C 479.296 200.594 480.112 198.69 481.106 197.047
C 483.126 193.707 485.253 190.429 487.301 187.105
C 488.189 185.662 488.852 184.019 489.939 182.714
C 491.444 183.308 492.813 184.405 494.217 185.218
C 496.42 186.494 498.819 187.564 500.903 189.028
C 496.096 197.187 490.969 205.116 485.945 213.135
C 486.038 215.024 488.453 217.711 489.465 219.325
C 492.227 223.731 495.089 228.076 497.841 232.488
C 498.826 234.068 500.816 236.128 501.09 237.979
C 498.414 239.541 495.868 241.354 493.208 242.953
C 492.481 243.39 490.886 244.642 490.058 244.452
C 487.858 239.47 483.91 234.702 480.93 230.139
C 480.223 229.055 478.819 225.639 477.637 225.249
C 475.278 229.653 472.391 233.869 469.714 238.093
C 468.551 239.927 467.542 242.562 465.951 244.035
C 464.829 244.015 463.325 242.757 462.368 242.161
C 460.081 240.737 457.634 239.009 455.14 237.999
C 455.064 237.292 454.987 237.621 455.386 237.014 Z"
opacity="1" fill="rgb(53,178,244)" fill-rule="evenodd" />
<path d="
M 458.9 337.567
C 459.712 335.143 461.988 332.892 463.413 330.778
C 466.707 325.892 470.045 321.041 473.31 316.141
C 475.832 315.77 478.675 316.118 481.233 316.162
C 481.716 318.583 481.338 321.423 481.346 323.894
C 481.362 328.289 481.549 332.724 481.381 337.113
C 482.208 337.52 485.146 336.187 485.605 336.856
C 485.721 338.702 485.682 340.556 485.776 342.4
C 484.701 342.936 482.827 342.37 481.599 342.615
C 481.478 344.682 481.241 346.894 481.418 348.955
C 479.308 348.847 477.009 348.731 474.909 348.961
C 474.208 347.439 474.626 344.22 474.781 342.551
C 469.78 342.147 464.468 342.175 459.456 342.467
C 458.52 341.631 458.769 338.775 458.9 337.567 Z
M 465.727 336.606
C 465.682 336.761 465.637 336.916 465.592 337.071
C 468.507 337.255 471.562 336.879 474.511 336.968
C 474.996 336.251 474.686 334.372 474.696 333.501
C 474.729 330.537 475.645 326.256 474.728 323.463
C 471.409 327.514 468.623 332.238 465.727 336.606 Z"
opacity="1" fill="rgb(15,26,75)" fill-rule="evenodd" />
<path d="
M 488.454 534.6
C 489.19 527.54 492.153 520.736 497.764 516.216
C 507.587 508.302 524.006 509.306 533.352 517.464
C 540.655 523.839 542.189 535.356 541.173 544.458
C 540.493 550.548 538.168 556.884 533.645 561.186
C 524.328 570.046 506.876 570.482 497.002 562.34
C 488.999 555.74 487.437 544.355 488.454 534.6 Z
M 500.477 533.603
C 499.427 540.35 499.645 549.812 504.903 554.888
C 509.815 559.629 519.354 559.659 524.436 555.172
C 527.055 552.86 528.402 549.281 528.966 545.916
C 530.145 538.881 529.973 529.191 524.286 524.016
C 519.602 519.752 510.831 519.56 505.919 523.512
C 502.788 526.032 501.086 529.689 500.477 533.603 Z"
opacity="1" fill="rgb(53,175,239)" fill-rule="evenodd" />
<path d="
M 549.744 550.777
C 552.138 550.414 554.576 550.703 556.987 550.569
C 558 550.512 559.415 550.067 560.361 550.457
C 560.684 552.094 561.024 553.66 562.028 555.042
C 564.934 559.043 571.453 559.584 575.946 559.063
C 580.281 558.562 584.884 556.13 584.333 551.052
C 583.743 545.61 576.496 544.81 572.338 543.875
C 564.521 542.115 553.895 540.245 551.812 531.029
C 551.482 529.566 551.366 527.983 551.445 526.484
C 551.543 524.657 552.019 522.896 552.725 521.215
C 557.627 509.537 575.363 508.611 585.247 513.855
C 590.215 516.491 594.917 522.105 594.394 528.154
C 591.016 528.318 587.558 527.76 584.204 528.084
C 583.574 526.725 583.493 525.267 582.601 524.007
C 580.205 520.624 575.237 519.928 571.405 520.114
C 566.898 520.332 561.473 522.415 562.495 527.977
C 563.402 532.92 570.076 533.648 574.012 534.607
C 582.521 536.68 593.964 538.421 595.272 549.021
C 595.473 550.655 595.495 552.395 595.254 554.023
C 594.344 560.168 589.203 564.671 583.462 566.348
C 574.568 568.946 563.705 568.967 556.032 563.1
C 551.919 559.954 551.052 555.469 549.744 550.777 Z"
opacity="1" fill="rgb(50,176,240)" fill-rule="evenodd" />

</svg>